<svg width="467" height="88" viewBox="0 0 467 88" fill="none" xmlns="http://www.w3.org/2000/svg">
<path fill-rule="evenodd" clip-rule="evenodd" d="M394.795 66.4405L394.793 12.6865H378.438L377.543 19.3464L382.018 20.9086L382.131 20.9502C382.784 21.2165 383.076 21.774 383.076 22.553V35.0505L382.854 34.8872C379.809 32.6709 376.21 31.1039 371.604 31.1039C362.572 31.1039 354.354 37.3527 354.354 53.879C354.354 69.5831 360.538 75.7496 370.139 75.7496C376.079 75.7496 380.066 73.4474 383.483 70.0764L384.052 70.1586L384.866 74.7629H400V68.2675L395.871 67.6597C395.032 67.528 394.842 67.3542 394.803 66.6326L394.795 66.4405ZM354.588 31.4163C352.985 31.0174 349.325 30.7045 347.464 30.7045C342.108 30.7045 338.425 33.9688 335.663 38.2375H335.161L334.156 31.5415H319.425L318.514 38.2534L318.551 38.3362L323.024 39.9115L323.135 39.9478C323.884 40.2165 324.112 40.7903 324.112 41.6692L324.112 66.3115C324.1 67.4647 323.907 67.7051 322.773 67.8671L319.007 68.3693V75.149H346.376V68.453L337.977 67.7751C336.873 67.6866 336.759 67.4279 336.751 66.2538L336.751 43.9291L336.986 43.7298C338.31 42.6307 340.729 40.9996 342.777 40.9996C343.447 40.9996 343.698 41.167 343.865 41.9203L344.702 46.3564L354.746 46.6912V31.4578L354.588 31.4163ZM172.542 31.3051C177.708 31.3051 182.764 32.2346 185.811 33.075L186.071 33.1478L186.317 31.9057H207.378V38.8151L202.716 39.3145L209.376 62.7063H209.958L217.367 32.9879H229.937L237.096 62.7063H237.596L243.839 39.3145L239.094 38.8151L240.176 31.9057H257.658L257.656 36.5652C257.279 37.3121 256.928 38.075 256.605 38.8526L254.661 39.2313C253.54 39.3914 253.035 39.7824 252.702 40.7742L252.663 40.8962L242.424 75.2763H229.271L222.778 47.3893H222.279L215.702 75.2763H200.718L190.229 40.8129C189.91 39.8556 189.515 39.6628 188.603 39.4286L188.481 39.3978L187.747 39.2403L187.794 39.4285V45.7397L178.925 45.1595L178.096 40.8453C178.014 40.1816 177.847 39.8502 177.268 39.684L177.004 39.6077C175.883 39.3035 174.029 39.0204 171.963 39.0204C167.818 39.0204 165.497 40.5965 165.497 43.2512C165.497 46.152 168.814 47.1221 172.927 48.0653L175.703 48.6973L176.087 48.7886C182.371 50.3007 189.038 52.8558 189.038 62.0818C189.038 72.2029 180.833 76.3502 170.305 76.3502C162.961 76.3502 155.775 74.4633 154.023 73.4452L153.892 73.3641V61.3355L162.761 61.9991L163.591 66.7274L163.617 66.9296C163.71 67.5355 163.911 67.8217 164.586 67.9713L164.78 68.0334L165.002 68.0982L165.249 68.1649L165.534 68.2352C166.73 68.5173 168.589 68.8011 170.969 68.8011C175.36 68.8011 177.847 67.5572 177.847 64.4877C177.847 61.2237 174.639 60.2075 170.512 59.4641L168.624 59.124L167.82 58.9715C161.355 57.7126 154.225 55.4338 154.225 45.8232C154.225 35.5368 163.01 31.3051 172.542 31.3051ZM96.0985 31.3051L95.8702 31.3056C88.3124 31.3376 78.3732 32.9941 78.3732 44.0801L89.9976 45.0769L89.9988 44.8662C90.0526 40.4342 91.8237 39.6245 95.1852 39.5294L95.5101 39.5224L96.0155 39.5188C100.35 39.5188 101.305 41.4267 101.495 44.3841L101.512 44.6784L101.528 45.132L101.535 45.4424L101.539 45.9124L101.539 50.635L91.7516 51.3187C81.6529 52.0382 76.6426 55.8603 76.6426 64.0728C76.6426 69.2168 78.2927 76.3502 88.6785 76.3502C95.2739 76.3502 99.3962 73.8616 102.528 70.7921L102.939 70.8747L103.765 75.3543H118.934V73.6787L119.049 73.7298C121.46 74.7788 127.984 76.3502 134.654 76.3502C145.124 76.3502 153.285 72.2021 153.285 62.0818C153.285 52.3764 145.947 50.0531 139.435 48.5605L137.474 48.1138C133.286 47.1544 129.872 46.202 129.872 43.2512C129.872 40.5965 132.181 39.0204 136.303 39.0204C138.529 39.0204 140.508 39.3526 141.58 39.684C142.155 39.8502 142.321 40.1816 142.403 40.8453L143.227 45.1595L152.048 45.7397V33.711L151.802 33.6172C149.312 32.7007 143.172 31.3051 136.879 31.3051C127.399 31.3051 118.662 35.5368 118.662 45.8232C118.662 54.8541 124.924 57.411 131.014 58.7311L131.578 58.8502L132.158 58.9665L132.957 59.1191L135.267 59.5394C139.174 60.2777 142.155 61.3325 142.155 64.4877C142.155 67.5572 139.682 68.8011 135.314 68.8011C132.948 68.8011 131.099 68.5173 129.91 68.2352L129.626 68.1649L129.38 68.0982L129.16 68.0334L128.966 67.9713C128.225 67.806 128.058 67.4737 127.977 66.7274L127.152 61.9991L118.331 61.3355V68.6999L114.977 68.1374L114.754 68.1054C113.973 67.9833 113.745 67.8237 113.682 67.2016L113.668 67.0202L113.661 66.8223L113.658 66.5997L113.658 46.3207L113.656 45.9748C113.557 34.6401 108.504 31.3051 96.0985 31.3051ZM58.1147 15.0889C73.4991 15.0889 78.1541 23.2192 78.1541 32.7587C78.1541 47.0483 69.5984 52.8826 55.7909 52.9979L55.3708 52.9996H49.3008L49.302 66.5081L49.3068 66.7182L49.3173 66.9115C49.3702 67.6054 49.5845 67.7731 50.4116 67.9006L50.6321 67.932L62.522 68.5957V75.149H29.9275L29.9273 75.1298L29.8911 75.149H0.965406V68.6243L8.05147 68.0449C9.12899 67.9681 9.34387 67.6756 9.36773 66.63L9.37016 66.3942V37.8713C9.37016 36.6882 8.48073 36.8834 2.28587 38.9826L0 32.2094L14.1584 24.0979H21.8139L21.8142 66.5149L21.817 66.7381L21.8241 66.9382C21.8664 67.7568 22.0739 67.9607 23.0209 68.0367L23.1335 68.0449L29.8911 68.6243L29.9273 68.6421L29.9275 68.5957L35.1658 68.0146C36.2513 67.8604 36.4695 67.6334 36.4938 66.5918L36.4963 66.3559V23.9655C36.4963 22.7631 36.3399 22.4118 35.2788 22.315L35.1658 22.3059L29.9275 21.7257V15.0889H58.1147ZM101.306 57.0857V63.9102L101.131 64.0376C99.2421 65.4001 96.5246 66.8698 93.8071 66.8698C91.0876 66.8698 89.1095 65.637 89.1095 62.3472C89.1095 59.0583 90.8404 57.8254 95.7013 57.4969L101.306 57.0857ZM375.203 40.6485C369.233 40.6485 366.854 46.2388 366.804 53.4922L366.803 53.7293C366.803 61.76 369.087 66.2306 374.224 66.2306C376.918 66.2306 379.842 64.6681 382.025 62.8332L382.216 62.6707V43.1322C380.177 41.7247 377.568 40.6485 375.203 40.6485ZM49.1289 24.198H53.9923C59.8417 24.198 64.7051 25.5947 64.7051 33.4882C64.7051 41.7999 59.8903 43.6626 54.9812 43.9629L54.5256 43.9864L54.2158 43.9978L53.7376 44.0085L53.4133 44.0116L49.1289 44.012V24.198Z" fill="white"/>
<path fill-rule="evenodd" clip-rule="evenodd" d="M287.688 18.6925C306.263 18.6925 321.321 33.7508 321.321 52.3262C321.321 70.9021 306.263 85.9598 287.688 85.9598C269.112 85.9598 254.054 70.9021 254.054 52.3262C254.054 33.7508 269.112 18.6925 287.688 18.6925ZM282.883 37.9118V66.7406H292.492V37.9118H282.883Z" fill="white"/>
<path fill-rule="evenodd" clip-rule="evenodd" d="M287.688 25.2991C302.614 25.2991 314.715 37.3997 314.715 52.3262C314.715 67.2532 302.614 79.3532 287.688 79.3532C272.761 79.3532 260.661 67.2532 260.661 52.3262C260.661 37.3997 272.761 25.2991 287.688 25.2991ZM282.883 37.9118V66.7406H292.492V37.9118L282.883 37.9118Z" fill="#1A8CFF"/>
<path opacity="0.5" fill-rule="evenodd" clip-rule="evenodd" d="M287.688 87.161C268.449 87.161 252.853 71.5655 252.853 52.3262C252.853 33.0874 268.449 17.4913 287.688 17.4913C306.926 17.4913 322.523 33.0874 322.523 52.3262C322.523 71.5655 306.926 87.161 287.688 87.161ZM287.688 18.6925C269.11 18.6925 254.054 33.7528 254.054 52.3262C254.054 70.8999 269.11 85.9598 287.688 85.9598C306.265 85.9598 321.321 70.8999 321.321 52.3262C321.321 33.7528 306.265 18.6925 287.688 18.6925Z" fill="black"/>
<path fill-rule="evenodd" clip-rule="evenodd" d="M317.117 51.7256C317.117 35.4721 303.941 22.2961 287.688 22.2961C271.434 22.2961 258.258 35.4721 258.258 51.7256C258.258 60.8122 262.376 68.937 268.848 74.3356C263.441 69.2924 260.06 62.105 260.06 54.128C260.06 38.8697 272.429 26.5003 287.688 26.5003C302.946 26.5003 315.315 38.8697 315.315 54.128C315.315 62.105 311.935 69.2924 306.527 74.3354C312.999 68.937 317.117 60.8122 317.117 51.7256ZM321.321 52.3262C321.321 51.7217 321.305 51.121 321.274 50.5244L321.25 50.934C320.111 68.4785 305.52 82.3562 287.688 82.3562C269.717 82.3562 255.038 68.2619 254.102 50.5244C254.07 51.121 254.054 51.7217 254.054 52.3262C254.054 70.9015 269.112 85.9598 287.688 85.9598C306.263 85.9598 321.321 70.9015 321.321 52.3262Z" fill="black" fill-opacity="0.0524476"/>
<path opacity="0.256138" fill-rule="evenodd" clip-rule="evenodd" d="M287.688 25.2991C272.759 25.2991 260.661 37.4016 260.661 52.3262C260.661 67.2511 272.759 79.3532 287.688 79.3532C302.616 79.3532 314.715 67.2511 314.715 52.3262C314.715 37.4016 302.616 25.2991 287.688 25.2991ZM287.688 78.152C273.425 78.152 261.862 66.5898 261.862 52.3262C261.862 38.0631 273.425 26.5003 287.688 26.5003C301.951 26.5003 313.514 38.0631 313.514 52.3262C313.514 66.5898 301.951 78.152 287.688 78.152Z" fill="black"/>
<path fill-rule="evenodd" clip-rule="evenodd" d="M266.667 52.46C266.667 40.7167 276.078 31.3051 287.822 31.3051C299.341 31.3051 308.709 40.7605 308.709 52.46C308.709 63.936 299.297 73.3472 287.822 73.3472C276.122 73.3472 266.667 63.9794 266.667 52.46ZM307.508 52.4592C307.508 41.3801 298.634 32.5063 287.821 32.5063C276.742 32.5063 267.868 41.3801 267.868 52.4592C267.868 63.2728 276.742 72.146 287.821 72.146C298.634 72.146 307.508 63.2728 307.508 52.4592Z" fill="black" fill-opacity="0.25"/>
<path fill-rule="evenodd" clip-rule="evenodd" d="M287.821 32.5063C298.634 32.5063 307.507 41.3801 307.507 52.4592C307.507 63.2728 298.634 72.146 287.821 72.146C276.742 72.146 267.868 63.2728 267.868 52.4592C267.868 41.3801 276.742 32.5063 287.821 32.5063ZM290.961 37.3112H284.415C283.6 37.3112 282.934 38.0328 282.886 38.9435L282.883 39.0494V46.0927C282.883 46.3617 282.965 46.621 283.114 46.8272L283.182 46.9122L284.139 47.9986C284.515 48.4245 284.537 49.0995 284.206 49.5547L284.139 49.6374L283.182 50.7238C283.014 50.914 282.911 51.1634 282.888 51.4287L282.883 51.5432V65.6029C282.883 66.5274 283.519 67.2833 284.321 67.338L284.415 67.3412H290.961C291.775 67.3412 292.441 66.6195 292.49 65.7088L292.492 65.6029V58.5596C292.492 58.2907 292.41 58.0314 292.261 57.8252L292.193 57.7402L291.236 56.6538C290.861 56.2278 290.839 55.5528 291.17 55.0976L291.236 55.0149L292.193 53.9285C292.361 53.7384 292.464 53.4889 292.487 53.2236L292.492 53.1091V39.0494C292.492 38.1249 291.857 37.369 291.054 37.3143L290.961 37.3112Z" fill="#F7F7F7"/>
<path fill-rule="evenodd" clip-rule="evenodd" d="M282.883 44.7041L282.883 46.0927C282.883 46.3617 282.965 46.621 283.114 46.8272L283.182 46.9122L284.139 47.9986C284.515 48.4245 284.537 49.0995 284.205 49.5547L284.139 49.6374L283.182 50.7238C283.014 50.914 282.911 51.1634 282.888 51.4287L282.883 51.5432L282.883 59.9482C280.356 58.3523 278.679 55.5352 278.679 52.3262C278.679 49.1172 280.356 46.3 282.883 44.7041ZM296.697 52.3262C296.697 55.5349 295.019 58.3519 292.493 59.9479L292.493 58.5596C292.493 58.2907 292.41 58.0314 292.261 57.8252L292.193 57.7402L291.236 56.6538C290.861 56.2278 290.839 55.5528 291.17 55.0976L291.236 55.0149L292.193 53.9285C292.361 53.7384 292.464 53.4889 292.488 53.2236L292.493 53.1091L292.493 44.7044C295.019 46.3004 296.697 49.1174 296.697 52.3262Z" fill="black" fill-opacity="0.05"/>
<path fill-rule="evenodd" clip-rule="evenodd" d="M282.883 44.7041L282.883 43.3149L282.698 43.4159C279.583 45.1642 277.477 48.4994 277.477 52.3262C277.477 56.228 279.666 59.6187 282.883 61.3374L282.883 59.9482C280.357 58.3523 278.679 55.5352 278.679 52.3262C278.679 49.1172 280.357 46.3 282.883 44.7041ZM292.493 61.3371C295.709 59.6183 297.898 56.2278 297.898 52.3262C297.898 48.4245 295.709 45.034 292.493 43.3152L292.493 44.7044C295.019 46.3004 296.697 49.1174 296.697 52.3262C296.697 55.5349 295.019 58.3519 292.493 59.9479L292.493 61.3371Z" fill="white"/>
<path fill-rule="evenodd" clip-rule="evenodd" d="M282.883 46.0927L282.883 44.7041C280.356 46.3 278.679 49.1172 278.679 52.3262C278.679 55.5352 280.356 58.3523 282.883 59.9482L282.883 58.481C281.055 57.052 279.88 54.8263 279.88 52.3262C279.88 49.8247 281.056 47.5979 282.885 46.1695C282.884 46.144 282.883 46.1184 282.883 46.0927ZM292.493 59.9479C295.019 58.3519 296.697 55.5349 296.697 52.3262C296.697 49.1174 295.019 46.3004 292.493 44.7044L292.493 46.1721C294.321 47.6011 295.495 49.8265 295.495 52.3262C295.495 54.8275 294.319 57.0541 292.49 58.4827C292.492 58.5082 292.492 58.5338 292.492 58.5596L292.493 59.9479Z" fill="black" fill-opacity="0.15"/>
<path fill-rule="evenodd" clip-rule="evenodd" d="M284.338 36.7106H291.037C292.522 36.7106 293.694 38.0106 293.694 39.5767V53.1134C293.694 53.7029 293.481 54.2725 293.096 54.7001L292.111 55.7925C292.088 55.8179 292.088 55.8895 292.111 55.9149L293.096 57.0073C293.481 57.4349 293.694 58.0045 293.694 58.594V65.0756C293.694 66.6417 292.522 67.9418 291.037 67.9418H284.338C282.854 67.9418 281.682 66.6417 281.682 65.0756V51.5389C281.682 50.9494 281.894 50.3798 282.28 49.9523L283.264 48.8599C283.287 48.8344 283.287 48.7629 283.264 48.7374L282.28 47.645C281.894 47.2174 281.682 46.6479 281.682 46.0584V39.5767C281.682 38.0106 282.854 36.7106 284.338 36.7106ZM292.492 39.67C292.492 38.7115 291.807 37.9344 290.961 37.9344H284.415C283.569 37.9344 282.883 38.7115 282.883 39.67V46.1022C282.883 46.409 282.99 46.7033 283.182 46.9203L284.139 48.0051C284.538 48.457 284.538 49.1896 284.139 49.6415L283.182 50.7262C282.99 50.9432 282.883 51.2375 282.883 51.5444V64.9823C282.883 65.9409 283.569 66.7179 284.415 66.7179H290.961C291.807 66.7179 292.492 65.9409 292.492 64.9823V58.5502C292.492 58.2433 292.385 57.949 292.193 57.732L291.236 56.6472C290.837 56.1954 290.837 55.4627 291.236 55.0109L292.193 53.9261C292.385 53.7091 292.492 53.4148 292.492 53.1079V39.67Z" fill="white"/>
<path fill-rule="evenodd" clip-rule="evenodd" d="M292.492 39.65C292.492 38.69 291.807 37.9118 290.961 37.9118H284.415C283.569 37.9118 282.883 38.69 282.883 39.65V46.0927C282.883 46.4001 282.99 46.6948 283.182 46.9122L284.139 47.9986C284.538 48.4511 284.538 49.1849 284.139 49.6374L283.182 50.7238C282.99 50.9411 282.883 51.2359 282.883 51.5432V65.0023C282.883 65.9623 283.569 66.7406 284.415 66.7406H290.961C291.807 66.7406 292.492 65.9623 292.492 65.0023V58.5596C292.492 58.2522 292.385 57.9575 292.193 57.7402L291.236 56.6538C290.837 56.2012 290.837 55.4675 291.236 55.0149L292.193 53.9285C292.385 53.7112 292.492 53.4165 292.492 53.1091V39.65ZM284.588 39.1375L290.788 39.1455L290.84 39.149C291.079 39.1808 291.291 39.4309 291.291 39.7664V53.1108L291.289 53.1369C291.285 53.1527 291.28 53.1649 291.274 53.1712L290.271 54.2487L290.19 54.3408C289.46 55.2162 289.487 56.5363 290.271 57.3788L291.274 58.4563L291.282 58.4699C291.287 58.4816 291.291 58.498 291.291 58.5168V64.902L291.288 64.9725C291.259 65.2952 291.031 65.5229 290.788 65.5229L284.588 65.5149L284.536 65.5114C284.296 65.4796 284.084 65.2295 284.084 64.894V51.5496L284.087 51.5235C284.09 51.5077 284.096 51.4955 284.102 51.4892L285.105 50.4117L285.186 50.3196C285.916 49.4442 285.889 48.1241 285.105 47.2816L284.102 46.204L284.093 46.1905C284.088 46.1788 284.084 46.1624 284.084 46.1436V39.7584L284.087 39.6878C284.117 39.3652 284.345 39.1375 284.588 39.1375Z" fill="black" fill-opacity="0.4"/>
<path d="M413.4 75C410.467 75 408.367 74 407.1 72C405.9 70 405.3 67.5333 405.3 64.6C405.3 61.4 405.9 57.6 407.1 53.2C408.3 48.8 409.867 44.1667 411.8 39.3C413.8 34.4333 415.967 29.7 418.3 25.1C420.633 20.4333 422.967 16.2333 425.3 12.5C427.7 8.7 429.867 5.66667 431.8 3.4C433.8 1.13333 435.4 0 436.6 0C437.4 0 438.033 0.433336 438.5 1.3C439.033 2.16667 439.433 3.2 439.7 4.4C440.033 5.53333 440.2 6.6 440.2 7.6C440.2 9.4 439.733 11.7667 438.8 14.7C437.933 17.5667 436.667 20.7667 435 24.3C433.4 27.8333 431.467 31.4333 429.2 35.1C427 38.7 424.567 42.1667 421.9 45.5C419.233 48.7667 416.433 51.6 413.5 54C413.1 55.8 412.767 57.5333 412.5 59.2C412.3 60.8667 412.2 62.4333 412.2 63.9C412.2 66.4333 412.567 68.3 413.3 69.5C414.1 70.7 415.2 71.3 416.6 71.3C418.333 71.3 420.067 70.5333 421.8 69C423.6 67.4 425.3 65.4 426.9 63C428.5 60.5333 429.867 58 431 55.4L432.8 56.3C430.067 62.1 427.067 66.6667 423.8 70C420.533 73.3333 417.067 75 413.4 75ZM414.7 49.7C416.967 47.3 419.167 44.6333 421.3 41.7C423.5 38.7 425.5 35.6 427.3 32.4C429.167 29.2 430.8 26.1333 432.2 23.2C433.6 20.2 434.667 17.5333 435.4 15.2C436.2 12.8 436.6 10.9333 436.6 9.6C436.6 9.13333 436.533 8.83333 436.4 8.7C436.333 8.56667 436.233 8.46667 436.1 8.4C435.567 8.4 434.667 9.23333 433.4 10.9C432.2 12.5 430.733 14.7 429 17.5C427.333 20.3 425.6 23.4667 423.8 27C422.067 30.5333 420.4 34.2667 418.8 38.2C417.2 42.0667 415.833 45.9 414.7 49.7Z" fill="white"/>
<path d="M440.026 76.4C435.892 76.4 432.759 75.2667 430.626 73C428.492 70.7333 427.426 67.9333 427.426 64.6C427.426 61.6667 428.159 58.5333 429.626 55.2C431.159 51.8667 433.159 48.7333 435.626 45.8C438.159 42.8667 440.926 40.5 443.926 38.7C446.992 36.9 450.026 36 453.026 36C454.626 36 456.093 36.4333 457.426 37.3C458.826 38.1 459.526 39.7667 459.526 42.3C459.526 44.8333 458.793 47.2 457.326 49.4C455.859 51.6 453.892 53.5667 451.426 55.3C448.959 57.0333 446.259 58.4667 443.326 59.6C440.459 60.6667 437.559 61.3667 434.626 61.7C434.492 62.2333 434.392 62.7667 434.326 63.3C434.326 63.7667 434.326 64.2667 434.326 64.8C434.326 65.6 434.392 66.4667 434.526 67.4C434.726 68.3333 435.092 69.2333 435.626 70.1C436.226 70.9667 437.026 71.6667 438.026 72.2C439.092 72.7333 440.459 73 442.126 73C444.992 73 447.826 72.2 450.626 70.6C453.426 69 456.026 66.9 458.426 64.3C460.892 61.6333 462.959 58.7 464.626 55.5L466.126 56.6C464.326 60.6 462.026 64.1 459.226 67.1C456.426 70.0333 453.359 72.3 450.026 73.9C446.759 75.5667 443.426 76.4 440.026 76.4ZM435.326 59.2C437.126 58.7333 439.126 57.9333 441.326 56.8C443.526 55.6667 445.659 54.3333 447.726 52.8C449.792 51.2 451.492 49.4667 452.826 47.6C454.159 45.6667 454.826 43.6667 454.826 41.6C454.826 40.8667 454.692 40.3333 454.426 40C454.159 39.6667 453.626 39.5 452.826 39.5C451.292 39.5 449.626 40.1 447.826 41.3C446.092 42.4333 444.392 43.9667 442.726 45.9C441.126 47.8333 439.659 49.9667 438.326 52.3C436.992 54.5667 435.992 56.8667 435.326 59.2Z" fill="white"/>
</svg>