<svg width="467" height="88" viewBox="0 0 467 88" fill="none" xmlns="http://www.w3.org/2000/svg">
<path fill-rule="evenodd" clip-rule="evenodd" d="M394.795 66.5374L394.793 12.4673H378.438L377.543 19.1663L382.018 20.7377L382.131 20.7796C382.784 21.0474 383.076 21.6083 383.076 22.3918V34.9628L382.854 34.7985C379.809 32.5693 376.21 30.993 371.604 30.993C362.572 30.993 354.354 37.2785 354.354 53.902C354.354 69.6985 360.538 75.9013 370.139 75.9013C376.079 75.9013 380.066 73.5856 383.483 70.1947L384.052 70.2774L384.866 74.9089H400V68.3752L395.871 67.7638C395.032 67.6314 394.842 67.4566 394.803 66.7307L394.795 66.5374ZM354.588 31.3072C352.985 30.906 349.326 30.5913 347.465 30.5913C342.108 30.5913 338.425 33.8748 335.663 38.1686H335.161L334.156 31.4332H319.425L318.515 38.1846L318.551 38.2678L323.024 39.8524L323.135 39.8889C323.884 40.1592 324.112 40.7364 324.112 41.6204L324.112 66.4077C324.101 67.5677 323.907 67.8095 322.773 67.9725L319.007 68.4776V75.2972H346.376V68.5618L337.977 67.8799C336.873 67.7909 336.759 67.5306 336.751 66.3497L336.751 43.8936L336.986 43.6931C338.31 42.5876 340.729 40.9469 342.777 40.9469C343.447 40.9469 343.698 41.1153 343.865 41.873L344.702 46.3352L354.746 46.6719V31.349L354.588 31.3072ZM172.542 31.1954C177.708 31.1954 182.764 32.1303 185.811 32.9757L186.071 33.0489L186.317 31.7996H207.378V38.7495L202.716 39.2519L209.376 62.7813H209.958L217.367 32.8881H229.937L237.096 62.7813H237.596L243.839 39.2519L239.094 38.7495L240.176 31.7996H257.658L257.656 36.4864C257.279 37.2377 256.928 38.0051 256.606 38.7873L254.661 39.1682C253.54 39.3292 253.035 39.7225 252.702 40.7202L252.663 40.8429L242.424 75.4252H229.271L222.778 47.3742H222.279L215.702 75.4252H200.718L190.229 40.7591C189.91 39.7962 189.515 39.6023 188.603 39.3667L188.481 39.3357L187.747 39.1772L187.794 39.3666V45.7149L178.925 45.1313L178.096 40.7917C178.014 40.1241 177.847 39.7907 177.268 39.6236L177.004 39.5468C175.883 39.2408 174.029 38.956 171.963 38.956C167.818 38.956 165.497 40.5414 165.497 43.2117C165.497 46.1296 168.814 47.1055 172.927 48.0542L175.703 48.6898L176.087 48.7817C182.371 50.3027 189.038 52.8729 189.038 62.1531C189.038 72.3338 180.833 76.5054 170.305 76.5054C162.961 76.5054 155.775 74.6074 154.023 73.5834L153.892 73.5018V61.4024L162.761 62.07L163.591 66.8261L163.617 67.0294C163.71 67.6389 163.911 67.9268 164.586 68.0773L164.78 68.1397L165.002 68.2049L165.249 68.272L165.535 68.3428C166.73 68.6265 168.589 68.9119 170.969 68.9119C175.361 68.9119 177.847 67.6608 177.847 64.5731C177.847 61.29 174.639 60.2678 170.512 59.52L168.624 59.1779L167.82 59.0245C161.355 57.7582 154.225 55.466 154.225 45.7989C154.225 35.4519 163.01 31.1954 172.542 31.1954ZM96.0985 31.1954L95.8702 31.1959C88.3125 31.2281 78.3732 32.8943 78.3732 44.0455L89.9976 45.0482L89.9989 44.8363C90.0526 40.3782 91.8237 39.5637 95.1852 39.468L95.5101 39.461L96.0155 39.4574C100.35 39.4574 101.305 41.3765 101.495 44.3513L101.512 44.6473L101.528 45.1037L101.535 45.4159L101.539 45.8886L101.539 50.639L91.7516 51.3267C81.6529 52.0505 76.6426 55.895 76.6426 64.1558C76.6426 69.3301 78.2927 76.5054 88.6785 76.5054C95.2739 76.5054 99.3962 74.0023 102.528 70.9146L102.939 70.9978L103.765 75.5037H118.934V73.8182L119.049 73.8697C121.46 74.9248 127.985 76.5054 134.654 76.5054C145.124 76.5054 153.285 72.3329 153.285 62.1531C153.285 52.3906 145.947 50.0537 139.435 48.5523L137.474 48.103C133.286 47.1379 129.872 46.1799 129.872 43.2117C129.872 40.5414 132.181 38.956 136.303 38.956C138.529 38.956 140.508 39.2903 141.58 39.6236C142.155 39.7907 142.321 40.1241 142.403 40.7917L143.227 45.1313L152.048 45.7149V33.6155L151.802 33.5211C149.312 32.5991 143.172 31.1954 136.879 31.1954C127.399 31.1954 118.662 35.4519 118.662 45.7989C118.662 54.8829 124.924 57.4548 131.014 58.7827L131.578 58.9025L132.158 59.0195L132.957 59.173L135.267 59.5957C139.174 60.3385 142.155 61.3994 142.155 64.5731C142.155 67.6608 139.682 68.9119 135.314 68.9119C132.948 68.9119 131.099 68.6265 129.91 68.3428L129.626 68.272L129.38 68.2049L129.16 68.1397L128.966 68.0773C128.225 67.911 128.058 67.5768 127.977 66.8261L127.152 62.07L118.331 61.4024V68.8101L114.977 68.2444L114.754 68.2121C113.973 68.0893 113.745 67.9288 113.682 67.3031L113.668 67.1205L113.661 66.9215L113.658 66.6976L113.658 46.2993L113.656 45.9514C113.557 34.55 108.504 31.1954 96.0985 31.1954ZM58.1147 14.8838C73.4991 14.8838 78.1541 23.0619 78.1541 32.6575C78.1541 47.0312 69.5984 52.8998 55.7909 53.0158L55.3708 53.0175H49.3008L49.302 66.6054L49.3068 66.8168L49.3173 67.0112C49.3702 67.7092 49.5845 67.8779 50.4116 68.0061L50.6321 68.0377L62.522 68.7053V75.2972H29.9275L29.9273 75.2778L29.8911 75.2972H0.965406V68.7341L8.05147 68.1513C9.12899 68.0741 9.34387 67.7798 9.36773 66.7281L9.37016 66.4909V37.8002C9.37016 36.6101 8.48073 36.8065 2.28587 38.9181L0 32.105L14.1584 23.9458H21.8139L21.8142 66.6123L21.817 66.8369L21.8241 67.0381C21.8664 67.8615 22.0739 68.0666 23.0209 68.1431L23.1335 68.1513L29.8911 68.7341L29.9273 68.752L29.9275 68.7053L35.1658 68.1209C36.2513 67.9657 36.4695 67.7374 36.4938 66.6896L36.4963 66.4523V23.8126C36.4963 22.6032 36.3399 22.2497 35.2788 22.1524L35.1658 22.1433L29.9275 21.5597V14.8838H58.1147ZM101.306 57.1277V63.9923L101.131 64.1204C99.2421 65.491 96.5246 66.9693 93.807 66.9693C91.0876 66.9693 89.1095 65.7292 89.1095 62.4201C89.1095 59.1118 90.8404 57.8717 95.7013 57.5413L101.306 57.1277ZM375.203 40.5937C369.233 40.5937 366.854 46.2169 366.804 53.513L366.803 53.7515C366.803 61.8294 369.087 66.3264 374.224 66.3264C376.918 66.3264 379.842 64.7546 382.025 62.909L382.216 62.7454V43.092C380.177 41.6763 377.568 40.5937 375.203 40.5937ZM49.1289 24.0465H53.9923C59.8418 24.0465 64.7052 25.4514 64.7052 33.3913C64.7052 41.7519 59.8903 43.6256 54.9812 43.9276L54.5256 43.9513L54.2158 43.9627L53.7376 43.9735L53.4133 43.9766L49.1289 43.977V24.0465Z" fill="#051627"/>
<path fill-rule="evenodd" clip-rule="evenodd" d="M254.054 52.3401C254.054 71.0253 269.112 86.1716 287.688 86.1716C306.263 86.1716 321.321 71.0253 321.321 52.3401C321.321 33.6555 306.263 18.5086 287.688 18.5086C269.112 18.5086 254.054 33.6555 254.054 52.3401Z" fill="white"/>
<path fill-rule="evenodd" clip-rule="evenodd" d="M287.688 25.7582C302.282 25.7582 314.114 37.6595 314.114 52.3401C314.114 67.0213 302.282 78.922 287.688 78.922C273.093 78.922 261.261 67.0213 261.261 52.3401C261.261 37.6595 273.093 25.7582 287.688 25.7582" fill="#1A8CFF"/>
<path opacity="0.5" fill-rule="evenodd" clip-rule="evenodd" d="M287.688 87.3798C268.449 87.3798 252.853 71.6926 252.853 52.3401C252.853 32.9882 268.449 17.3004 287.688 17.3004C306.926 17.3004 322.523 32.9882 322.523 52.3401C322.523 71.6926 306.926 87.3798 287.688 87.3798ZM287.688 18.5086C269.11 18.5086 254.054 33.6575 254.054 52.3401C254.054 71.0231 269.11 86.1716 287.688 86.1716C306.265 86.1716 321.321 71.0231 321.321 52.3401C321.321 33.6575 306.265 18.5086 287.688 18.5086Z" fill="black"/>
<path fill-rule="evenodd" clip-rule="evenodd" d="M317.117 51.736C317.117 35.3869 303.941 22.1334 287.688 22.1334C271.434 22.1334 258.258 35.3869 258.258 51.736C258.258 60.8761 262.376 69.0487 268.848 74.479C263.441 69.4062 260.06 62.1765 260.06 54.1525C260.06 38.8044 272.429 26.3624 287.688 26.3624C302.946 26.3624 315.315 38.8044 315.315 54.1525C315.315 62.1765 311.935 69.4062 306.527 74.4788C312.999 69.0487 317.117 60.8761 317.117 51.736ZM321.321 52.3401C321.321 51.7321 321.305 51.1278 321.274 50.5277L321.25 50.9397C320.111 68.5874 305.52 82.5468 287.688 82.5468C269.717 82.5468 255.038 68.3696 254.101 50.5277C254.07 51.1278 254.054 51.7321 254.054 52.3401C254.054 71.0247 269.112 86.1716 287.688 86.1716C306.263 86.1716 321.321 71.0247 321.321 52.3401Z" fill="black" fill-opacity="0.0524476"/>
<path opacity="0.256138" fill-rule="evenodd" clip-rule="evenodd" d="M287.688 25.7582C273.091 25.7582 261.261 37.6614 261.261 52.3401C261.261 67.0192 273.091 78.922 287.688 78.922C302.285 78.922 314.114 67.0192 314.114 52.3401C314.114 37.6614 302.284 25.7582 287.688 25.7582ZM287.688 77.7137C273.756 77.7137 262.462 66.354 262.462 52.3401C262.462 38.3268 273.756 26.9665 287.688 26.9665C301.619 26.9665 312.913 38.3268 312.913 52.3401C312.913 66.354 301.619 77.7137 287.688 77.7137Z" fill="black"/>
<path fill-rule="evenodd" clip-rule="evenodd" d="M266.667 52.4747C266.667 40.6624 276.078 31.1954 287.822 31.1954C299.341 31.1954 308.709 40.7064 308.709 52.4747C308.709 64.0182 299.297 73.4848 287.822 73.4848C276.122 73.4848 266.667 64.0619 266.667 52.4747ZM307.508 52.4739C307.508 41.3297 298.634 32.4037 287.821 32.4037C276.742 32.4037 267.868 41.3297 267.868 52.4739C267.868 63.3511 276.742 72.2765 287.821 72.2765C298.634 72.2765 307.508 63.3511 307.508 52.4739Z" fill="black" fill-opacity="0.25"/>
<path fill-rule="evenodd" clip-rule="evenodd" d="M287.821 32.4037C298.634 32.4037 307.508 41.3297 307.508 52.4739C307.508 63.3511 298.634 72.2765 287.821 72.2765C276.742 72.2765 267.868 63.3511 267.868 52.4739C267.868 41.3297 276.742 32.4037 287.821 32.4037V32.4037Z" fill="#F7F7F7"/>
<path fill-rule="evenodd" clip-rule="evenodd" d="M296.697 52.3401C296.697 57.3448 292.663 61.4021 287.688 61.4021C282.712 61.4021 278.679 57.3448 278.679 52.3401C278.679 47.3354 282.712 43.2781 287.688 43.2781C292.663 43.2781 296.697 47.3354 296.697 52.3401Z" fill="black" fill-opacity="0.05"/>
<path fill-rule="evenodd" clip-rule="evenodd" d="M277.477 52.3401C277.477 46.668 282.049 42.0698 287.688 42.0698C293.327 42.0698 297.898 46.668 297.898 52.3401C297.898 58.0122 293.327 62.6104 287.688 62.6104C282.049 62.6104 277.477 58.0122 277.477 52.3401ZM296.697 52.3401C296.697 47.3354 292.663 43.2781 287.688 43.2781C282.712 43.2781 278.679 47.3354 278.679 52.3401C278.679 57.3448 282.712 61.4021 287.688 61.4021C292.663 61.4021 296.697 57.3448 296.697 52.3401Z" fill="white"/>
<path fill-rule="evenodd" clip-rule="evenodd" d="M296.697 52.3401C296.697 47.3354 292.663 43.2781 287.688 43.2781C282.712 43.2781 278.679 47.3354 278.679 52.3401C278.679 57.3448 282.712 61.4021 287.688 61.4021C292.663 61.4021 296.697 57.3448 296.697 52.3401ZM279.88 52.3401C279.88 48.0026 283.376 44.4864 287.688 44.4864C292 44.4864 295.495 48.0026 295.495 52.3401C295.495 56.6776 292 60.1938 287.688 60.1938C283.376 60.1938 279.88 56.6776 279.88 52.3401Z" fill="black" fill-opacity="0.15"/>
<path fill-rule="evenodd" clip-rule="evenodd" d="M284.338 36.6326H291.037C292.522 36.6326 293.694 37.9403 293.694 39.5157V53.132C293.694 53.725 293.481 54.2979 293.096 54.728L292.111 55.8268C292.088 55.8524 292.088 55.9244 292.111 55.95L293.096 57.0488C293.481 57.4789 293.694 58.0518 293.694 58.6448V65.1645C293.694 66.7399 292.522 68.0476 291.037 68.0476H284.338C282.854 68.0476 281.682 66.7399 281.682 65.1645V51.5482C281.682 50.9552 281.894 50.3823 282.28 49.9522L283.264 48.8534C283.287 48.8278 283.287 48.7558 283.264 48.7302L282.28 47.6314C281.894 47.2013 281.682 46.6284 281.682 46.0354V39.5157C281.682 37.9403 282.854 36.6326 284.338 36.6326ZM292.492 39.6095C292.492 38.6453 291.807 37.8637 290.961 37.8637H284.415C283.569 37.8637 282.883 38.6453 282.883 39.6095V46.0795C282.883 46.3882 282.99 46.6842 283.182 46.9025L284.139 47.9936C284.538 48.4481 284.538 49.1851 284.139 49.6396L283.182 50.7307C282.99 50.949 282.883 51.2451 282.883 51.5537V65.0707C282.883 66.0349 283.569 66.8165 284.415 66.8165H290.961C291.807 66.8165 292.492 66.0349 292.492 65.0707V58.6007C292.492 58.292 292.385 57.996 292.193 57.7777L291.236 56.6866C290.837 56.2321 290.837 55.4951 291.236 55.0406L292.193 53.9495C292.385 53.7312 292.492 53.4351 292.492 53.1265V39.6095Z" fill="white"/>
<path fill-rule="evenodd" clip-rule="evenodd" d="M282.883 46.0696V39.5895C282.883 38.6238 283.569 37.8409 284.415 37.8409H290.961C291.807 37.8409 292.492 38.6238 292.492 39.5895V53.1277C292.492 53.4369 292.385 53.7334 292.193 53.952L291.236 55.0449C290.837 55.5001 290.837 56.2382 291.236 56.6934L292.193 57.7863C292.385 58.0049 292.492 58.3014 292.492 58.6106V65.0907C292.492 66.0564 291.807 66.8393 290.961 66.8393H284.415C283.569 66.8393 282.883 66.0564 282.883 65.0907V51.5525C282.883 51.2433 282.99 50.9468 283.182 50.7282L284.139 49.6354C284.538 49.1801 284.538 48.442 284.139 47.9868L283.182 46.8939C282.99 46.6753 282.883 46.3788 282.883 46.0696Z" fill="#0A2D4D"/>
<path fill-rule="evenodd" clip-rule="evenodd" d="M292.492 39.5895C292.492 38.6238 291.807 37.8409 290.961 37.8409H284.415C283.569 37.8409 282.883 38.6238 282.883 39.5895V46.0696C282.883 46.3788 282.99 46.6753 283.182 46.8939L284.139 47.9868C284.538 48.442 284.538 49.1801 284.139 49.6354L283.182 50.7282C282.99 50.9468 282.883 51.2433 282.883 51.5525V65.0907C282.883 66.0564 283.569 66.8393 284.415 66.8393H290.961C291.807 66.8393 292.492 66.0564 292.492 65.0907V58.6106C292.492 58.3014 292.385 58.0049 292.193 57.7863L291.236 56.6934C290.837 56.2382 290.837 55.5001 291.236 55.0449L292.193 53.952C292.385 53.7334 292.492 53.4369 292.492 53.1277V39.5895ZM284.588 39.0739L290.788 39.082L290.839 39.0855C291.079 39.1175 291.291 39.3691 291.291 39.7066V53.1294L291.289 53.1556C291.285 53.1715 291.28 53.1839 291.274 53.1901L290.271 54.2741L290.19 54.3667C289.46 55.2473 289.487 56.5753 290.271 57.4228L291.274 58.5067L291.282 58.5204C291.287 58.5321 291.291 58.5486 291.291 58.5675V64.9898L291.288 65.0608C291.259 65.3853 291.031 65.6144 290.788 65.6144L284.588 65.6063L284.536 65.6028C284.296 65.5708 284.084 65.3192 284.084 64.9817V51.5589L284.087 51.5327C284.09 51.5168 284.096 51.5044 284.102 51.4982L285.105 50.4142L285.186 50.3216C285.916 49.441 285.889 48.113 285.105 47.2655L284.102 46.1816L284.093 46.1679C284.088 46.1562 284.084 46.1397 284.084 46.1208V39.6985L284.087 39.6275C284.117 39.303 284.345 39.0739 284.588 39.0739Z" fill="black" fill-opacity="0.4"/>
<path d="M413.4 75C410.467 75 408.367 74 407.1 72C405.9 70 405.3 67.5333 405.3 64.6C405.3 61.4 405.9 57.6 407.1 53.2C408.3 48.8 409.867 44.1667 411.8 39.3C413.8 34.4333 415.967 29.7 418.3 25.1C420.633 20.4333 422.967 16.2333 425.3 12.5C427.7 8.7 429.867 5.66667 431.8 3.4C433.8 1.13333 435.4 -3.8147e-06 436.6 -3.8147e-06C437.4 -3.8147e-06 438.033 0.433332 438.5 1.3C439.033 2.16667 439.433 3.2 439.7 4.39999C440.033 5.53333 440.2 6.6 440.2 7.59999C440.2 9.4 439.733 11.7667 438.8 14.7C437.933 17.5667 436.667 20.7667 435 24.3C433.4 27.8333 431.467 31.4333 429.2 35.1C427 38.7 424.567 42.1667 421.9 45.5C419.233 48.7667 416.433 51.6 413.5 54C413.1 55.8 412.767 57.5333 412.5 59.2C412.3 60.8667 412.2 62.4333 412.2 63.9C412.2 66.4333 412.567 68.3 413.3 69.5C414.1 70.7 415.2 71.3 416.6 71.3C418.333 71.3 420.067 70.5333 421.8 69C423.6 67.4 425.3 65.4 426.9 63C428.5 60.5333 429.867 58 431 55.4L432.8 56.3C430.067 62.1 427.067 66.6667 423.8 70C420.533 73.3333 417.067 75 413.4 75ZM414.7 49.7C416.967 47.3 419.167 44.6333 421.3 41.7C423.5 38.7 425.5 35.6 427.3 32.4C429.167 29.2 430.8 26.1333 432.2 23.2C433.6 20.2 434.667 17.5333 435.4 15.2C436.2 12.8 436.6 10.9333 436.6 9.6C436.6 9.13333 436.533 8.83333 436.4 8.7C436.333 8.56666 436.233 8.46666 436.1 8.4C435.567 8.4 434.667 9.23333 433.4 10.9C432.2 12.5 430.733 14.7 429 17.5C427.333 20.3 425.6 23.4667 423.8 27C422.067 30.5333 420.4 34.2667 418.8 38.2C417.2 42.0667 415.833 45.9 414.7 49.7Z" fill="black"/>
<path d="M440.026 76.4C435.892 76.4 432.759 75.2667 430.626 73C428.492 70.7333 427.426 67.9333 427.426 64.6C427.426 61.6667 428.159 58.5333 429.626 55.2C431.159 51.8667 433.159 48.7333 435.626 45.8C438.159 42.8667 440.926 40.5 443.926 38.7C446.992 36.9 450.026 36 453.026 36C454.626 36 456.092 36.4333 457.426 37.3C458.826 38.1 459.526 39.7667 459.526 42.3C459.526 44.8333 458.792 47.2 457.326 49.4C455.859 51.6 453.892 53.5667 451.426 55.3C448.959 57.0333 446.259 58.4667 443.326 59.6C440.459 60.6667 437.559 61.3667 434.626 61.7C434.492 62.2333 434.392 62.7667 434.326 63.3C434.326 63.7667 434.326 64.2667 434.326 64.8C434.326 65.6 434.392 66.4667 434.526 67.4C434.726 68.3333 435.092 69.2333 435.626 70.1C436.226 70.9667 437.026 71.6667 438.026 72.2C439.092 72.7333 440.459 73 442.126 73C444.992 73 447.826 72.2 450.626 70.6C453.426 69 456.026 66.9 458.426 64.3C460.892 61.6333 462.959 58.7 464.626 55.5L466.126 56.6C464.326 60.6 462.026 64.1 459.226 67.1C456.426 70.0333 453.359 72.3 450.026 73.9C446.759 75.5667 443.426 76.4 440.026 76.4ZM435.326 59.2C437.126 58.7333 439.126 57.9333 441.326 56.8C443.526 55.6667 445.659 54.3333 447.726 52.8C449.792 51.2 451.492 49.4667 452.826 47.6C454.159 45.6667 454.826 43.6667 454.826 41.6C454.826 40.8667 454.692 40.3333 454.426 40C454.159 39.6667 453.626 39.5 452.826 39.5C451.292 39.5 449.626 40.1 447.826 41.3C446.092 42.4333 444.392 43.9667 442.726 45.9C441.126 47.8333 439.659 49.9667 438.326 52.3C436.992 54.5667 435.992 56.8667 435.326 59.2Z" fill="black"/>
</svg>